<svg width="15" height="6" viewBox="0 0 15 6" fill="none" xmlns="http://www.w3.org/2000/svg">
<path d="M4.25 5C4.25 4.44772 4.69771 4 5.25 4C5.80228 4 6.25 4.44772 6.25 5C6.25 5.55228 5.80228 6 5.25 6C4.69771 6 4.25 5.55228 4.25 5Z" fill="#fff" fill-opacity="1"/>
<path d="M0.25 5C0.25 4.44772 0.697715 4 1.25 4C1.80228 4 2.25 4.44772 2.25 5C2.25 5.55228 1.80228 6 1.25 6C0.697715 6 0.25 5.55228 0.25 5Z" fill="#fff" fill-opacity="1"/>
<path d="M8.25 5C8.25 4.44771 8.69771 4 9.25 4C9.80228 4 10.25 4.44771 10.25 5C10.25 5.55228 9.80228 6 9.25 6C8.69771 6 8.25 5.55228 8.25 5Z" fill="#fff" fill-opacity="1"/>
<path d="M4.25 1C4.25 0.447715 4.69772 -1.94416e-07 5.25 -2.18557e-07C5.80228 -2.42698e-07 6.25 0.447715 6.25 1C6.25 1.55228 5.80228 2 5.25 2C4.69772 2 4.25 1.55228 4.25 1Z" fill="#fff" fill-opacity="1"/>
<path d="M0.25 1C0.25 0.447715 0.697715 -1.95703e-08 1.25 -4.37114e-08C1.80228 -6.78525e-08 2.25 0.447715 2.25 1C2.25 1.55228 1.80228 2 1.25 2C0.697715 2 0.25 1.55228 0.25 1Z" fill="#fff" fill-opacity="1"/>
<path d="M8.25 1C8.25 0.447715 8.69772 -3.69261e-07 9.25 -3.93402e-07C9.80228 -4.17544e-07 10.25 0.447715 10.25 1C10.25 1.55228 9.80228 2 9.25 2C8.69772 2 8.25 1.55228 8.25 1Z" fill="#fff" fill-opacity="1"/>
<path d="M12.25 5C12.25 4.44771 12.6977 4 13.25 4C13.8023 4 14.25 4.44772 14.25 5C14.25 5.55229 13.8023 6 13.25 6C12.6977 6 12.25 5.55228 12.25 5Z" fill="#fff" fill-opacity="1"/>
<path d="M12.25 1C12.25 0.447716 12.6977 4.09567e-07 13.25 3.85426e-07C13.8023 3.61285e-07 14.25 0.447716 14.25 1C14.25 1.55229 13.8023 2 13.25 2C12.6977 2 12.25 1.55229 12.25 1Z" fill="#fff" fill-opacity="1"/>
</svg>
